<svg width="408" height="408" viewBox="0 0 408 408" fill="none" xmlns="http://www.w3.org/2000/svg">
<circle cx="204" cy="204" r="194" fill="#FFFBF5" stroke="#FF9B06" stroke-width="20"/>
<g clip-path="url(#clip0_681_4955)">
<path d="M145.466 157.392V159.516C145.485 158.744 145.541 157.625 145.693 156.261C145.547 156.609 145.466 156.991 145.466 157.392Z" fill="#FF9C06"/>
<path fill-rule="evenodd" clip-rule="evenodd" d="M148.396 154.46C147.18 154.46 146.135 155.204 145.692 156.261C146.668 147.512 151.578 128.652 175.699 125.993H198.128L223.324 125.994H273.055C290.367 125.994 304.452 140.079 304.452 157.392V182.652C302.377 178.814 299.843 175.132 296.832 171.685C287.233 160.692 277.449 156.135 274.794 155.037C274.307 154.676 273.707 154.46 273.056 154.46H148.396Z" fill="#FF9C06"/>
<path fill-rule="evenodd" clip-rule="evenodd" d="M156.093 143.854L185.045 135.554L175 110.068C178.359 105.247 179.394 99.1956 177.753 93.4727C174.771 83.0738 163.872 77.043 153.458 80.0293C143.043 83.0156 136.997 93.9052 139.979 104.303C141.62 110.026 145.704 114.609 151.108 116.918L156.093 143.854Z" fill="#FF9C06"/>
<path fill-rule="evenodd" clip-rule="evenodd" d="M251.468 135.552L280.418 143.855L285.405 116.919C290.808 114.611 294.893 110.027 296.534 104.304C299.516 93.9051 293.469 83.0151 283.054 80.0288C272.64 77.0425 261.742 83.0737 258.761 93.4714C257.12 99.1942 258.154 105.246 261.514 110.067L251.468 135.552Z" fill="#FF9C06"/>
<path d="M224.26 262.923H165.321L145.466 282.017V160.701C145.466 160.701 145.448 160.275 145.466 159.517V157.392C145.466 156.991 145.546 156.61 145.693 156.263C146.667 147.512 151.579 128.653 175.699 125.996H148.396C131.085 125.994 117 140.079 117 157.392V314.136C117 320.174 120.451 325.394 126.008 327.758C127.929 328.575 129.921 328.975 131.885 328.975C135.605 328.975 139.224 327.543 142.071 324.803L175.948 292.202C184.811 283.024 202.379 267.642 224.26 262.923Z" fill="#FF9C06"/>
<path d="M145.466 160.701V159.517C145.448 160.275 145.466 160.701 145.466 160.701Z" fill="#FF9C06"/>
<path d="M274.783 262.355C274.298 262.71 273.703 262.923 273.056 262.923H272.717H271.943H224.26C202.379 267.641 184.81 283.023 175.948 292.201L176.793 291.388H273.057C290.37 291.388 304.455 277.304 304.455 259.991V238.787C298.292 249.688 288.263 258.366 274.783 262.355Z" fill="#FF9C06"/>
<path d="M274.795 155.037C275.517 155.571 275.988 156.426 275.988 157.391V259.992C275.988 260.962 275.512 261.821 274.783 262.355C288.263 258.366 298.292 249.689 304.453 238.788V182.652C302.378 178.814 299.844 175.132 296.833 171.685C287.234 160.693 277.45 156.135 274.795 155.037Z" fill="#FF9C06"/>
<path d="M247.976 225.677C251.956 221.774 251.322 215.337 247.014 211.755L243.341 208.701C240.824 206.608 237.07 207.07 235.16 209.708V209.708C224.428 223.717 214.525 231.501 200.3 228.933C191.068 227.267 183.623 222.514 181.254 220.866C180.722 220.496 180.14 220.212 179.513 220.051V220.051C177.397 219.508 175.19 220.476 174.167 222.395L172.878 224.816C171.081 228.187 171.819 232.399 174.996 234.554C189.595 244.46 218.519 254.566 247.976 225.677Z" fill="#FF9C06"/>
<path d="M164.156 192.861C162.567 195.452 163.374 198.767 165.725 200.694L166.005 200.922C166.362 201.215 166.763 201.449 167.194 201.616L167.35 201.677C169.165 202.382 171.227 201.736 172.315 200.12V200.12C172.414 199.922 174.211 196.373 177.39 193.994C181.671 190.791 186.871 191.06 192.849 194.794V194.794C194.907 196.079 197.624 195.07 198.345 192.754L199.299 189.685C200.258 186.602 198.679 183.248 195.577 182.349C177.796 177.193 169.003 184.957 164.156 192.861Z" fill="#FF9C06"/>
<circle cx="234.642" cy="185.981" r="11.6073" transform="rotate(-8.70619 234.642 185.981)" fill="#FF9C06"/>
</g>
<defs>
<clipPath id="clip0_681_4955">
<rect width="256" height="256" fill="white" transform="translate(83 76)"/>
</clipPath>
</defs>
</svg>

