<svg width="140" height="35" viewBox="0 0 140 35" fill="none" xmlns="http://www.w3.org/2000/svg">
<g clip-path="url(#clip0_494_2493)">
<path d="M6.54089 12.645V12.8663C6.54285 12.7858 6.54874 12.6693 6.56454 12.5272C6.54931 12.5634 6.54089 12.6032 6.54089 12.645Z" fill="#FF9C06"/>
<path fill-rule="evenodd" clip-rule="evenodd" d="M6.84619 12.3396C6.71956 12.3396 6.61068 12.4171 6.56454 12.5273C6.66616 11.6159 7.17767 9.65125 9.69025 9.37433H12.0266L14.6512 9.37444H19.8315C21.6349 9.37444 23.102 10.8416 23.102 12.645V15.2763C22.8859 14.8765 22.6219 14.4929 22.3083 14.1339C21.3083 12.9888 20.2892 12.5141 20.0127 12.3997C19.9619 12.3621 19.8994 12.3396 19.8316 12.3396H6.84619Z" fill="#FF9C06"/>
<path fill-rule="evenodd" clip-rule="evenodd" d="M7.64794 11.2348L10.6637 10.3702L9.61734 7.71544C9.96728 7.21326 10.0751 6.58288 9.90415 5.98675C9.59354 4.90353 8.45822 4.27532 7.37338 4.58639C6.28854 4.89747 5.65877 6.03181 5.96934 7.1149C6.14028 7.71103 6.56575 8.18849 7.12864 8.42892L7.64794 11.2348Z" fill="#FF9C06"/>
<path fill-rule="evenodd" clip-rule="evenodd" d="M17.5827 10.37L20.5984 11.2349L21.1179 8.42903C21.6807 8.1886 22.1062 7.71114 22.2771 7.11501C22.5878 6.03179 21.9579 4.89741 20.873 4.58634C19.7882 4.27526 18.653 4.90351 18.3424 5.9866C18.1715 6.58273 18.2793 7.21311 18.6292 7.71529L17.5827 10.37Z" fill="#FF9C06"/>
<path d="M14.7486 23.6379H8.60922L6.5409 25.6268V12.9898C6.5409 12.9898 6.53906 12.9454 6.5409 12.8664V12.645C6.5409 12.6033 6.54932 12.5636 6.56455 12.5274C6.66604 11.6159 7.17767 9.65138 9.69026 9.37457H6.8462C5.04293 9.37446 3.57574 10.8416 3.57574 12.645V28.9725C3.57574 29.6015 3.93525 30.1452 4.51411 30.3915C4.71422 30.4766 4.92171 30.5182 5.12632 30.5182C5.51373 30.5182 5.89076 30.3691 6.18729 30.0836L9.71621 26.6877C10.6394 25.7317 12.4694 24.1294 14.7486 23.6379Z" fill="#FF9C06"/>
<path d="M6.54092 12.9897V12.8663C6.53907 12.9453 6.54092 12.9897 6.54092 12.9897Z" fill="#FF9C06"/>
<path d="M20.0115 23.5787C19.961 23.6157 19.899 23.6379 19.8316 23.6379H19.7963H19.7157H14.7487C12.4694 24.1293 10.6394 25.7317 9.71622 26.6877L9.80422 26.603H19.8317C21.6351 26.603 23.1023 25.1358 23.1023 23.3324V21.1237C22.4603 22.2593 21.4156 23.1631 20.0115 23.5787Z" fill="#FF9C06"/>
<path d="M20.0128 12.3997C20.088 12.4554 20.137 12.5444 20.137 12.6449V23.3325C20.137 23.4336 20.0874 23.5231 20.0115 23.5787C21.4156 23.1631 22.4603 22.2592 23.1022 21.1238V15.2762C22.886 14.8765 22.622 14.4929 22.3084 14.1338C21.3085 12.9889 20.2894 12.5141 20.0128 12.3997Z" fill="#FF9C06"/>
<path d="M17.219 19.758C17.6336 19.3515 17.5676 18.6809 17.1188 18.3078L16.7362 17.9897C16.474 17.7717 16.083 17.8198 15.8841 18.0945V18.0945C14.7661 19.5538 13.7345 20.3647 12.2528 20.0972C11.2912 19.9236 10.5156 19.4285 10.2688 19.2568C10.2135 19.2183 10.1528 19.1887 10.0875 19.172V19.172C9.86704 19.1154 9.63718 19.2162 9.53063 19.4162L9.39629 19.6683C9.20917 20.0194 9.28604 20.4582 9.617 20.6827C11.1376 21.7145 14.1506 22.7672 17.219 19.758Z" fill="#FF9C06"/>
<path d="M8.48782 16.3396C8.32228 16.6096 8.40635 16.9549 8.65132 17.1556L8.68041 17.1794C8.71762 17.2099 8.75942 17.2343 8.80426 17.2517L8.82054 17.258C9.00965 17.3315 9.22442 17.2642 9.33776 17.0959V17.0959C9.34802 17.0753 9.53522 16.7055 9.86642 16.4577C10.3123 16.124 10.854 16.1521 11.4767 16.541V16.541C11.691 16.6749 11.9741 16.5698 12.0492 16.3285L12.1486 16.0089C12.2485 15.6877 12.084 15.3383 11.7609 15.2446C9.90868 14.7076 8.99274 15.5163 8.48782 16.3396Z" fill="#FF9C06"/>
<circle cx="15.8301" cy="15.6231" r="1.20909" transform="rotate(-8.70619 15.8301 15.6231)" fill="#FF9C06"/>
</g>
<path d="M35.6238 25.216C35.0158 25.216 34.5518 25.048 34.2318 24.712C33.9118 24.376 33.7518 23.904 33.7518 23.296V9.76C33.7518 9.152 33.9118 8.688 34.2318 8.368C34.5518 8.032 35.0158 7.864 35.6238 7.864C36.2158 7.864 36.6718 8.032 36.9918 8.368C37.3118 8.688 37.4718 9.152 37.4718 9.76V15.448H37.5198L43.9038 8.776C44.1758 8.488 44.4558 8.272 44.7438 8.128C45.0478 7.968 45.3918 7.888 45.7758 7.888C46.3358 7.888 46.7358 8.032 46.9758 8.32C47.2318 8.608 47.3438 8.944 47.3118 9.328C47.2798 9.712 47.1038 10.072 46.7838 10.408L40.3758 16.96L40.3998 15.352L47.1198 22.528C47.4878 22.928 47.6718 23.336 47.6718 23.752C47.6878 24.168 47.5518 24.52 47.2638 24.808C46.9918 25.08 46.5838 25.216 46.0398 25.216C45.5758 25.216 45.1998 25.12 44.9118 24.928C44.6398 24.736 44.3358 24.456 43.9998 24.088L37.5198 17.272H37.4718V23.296C37.4718 23.904 37.3118 24.376 36.9918 24.712C36.6878 25.048 36.2318 25.216 35.6238 25.216ZM52.8241 25.192C52.2321 25.192 51.7761 25.024 51.4561 24.688C51.1521 24.336 51.0001 23.848 51.0001 23.224V15.016C51.0001 14.376 51.1521 13.888 51.4561 13.552C51.7761 13.2 52.2321 13.024 52.8241 13.024C53.4001 13.024 53.8401 13.2 54.1441 13.552C54.4641 13.888 54.6241 14.376 54.6241 15.016V23.224C54.6241 23.848 54.4721 24.336 54.1681 24.688C53.8641 25.024 53.4161 25.192 52.8241 25.192ZM52.8241 11.056C52.1521 11.056 51.6321 10.904 51.2641 10.6C50.9121 10.28 50.7361 9.832 50.7361 9.256C50.7361 8.664 50.9121 8.216 51.2641 7.912C51.6321 7.592 52.1521 7.432 52.8241 7.432C53.4961 7.432 54.0081 7.592 54.3601 7.912C54.7121 8.216 54.8881 8.664 54.8881 9.256C54.8881 9.832 54.7121 10.28 54.3601 10.6C54.0081 10.904 53.4961 11.056 52.8241 11.056ZM62.246 25.264C61.222 25.264 60.318 25.016 59.534 24.52C58.766 24.024 58.166 23.312 57.734 22.384C57.302 21.456 57.086 20.36 57.086 19.096C57.086 17.832 57.302 16.744 57.734 15.832C58.166 14.92 58.766 14.216 59.534 13.72C60.318 13.224 61.222 12.976 62.246 12.976C63.174 12.976 63.99 13.2 64.694 13.648C65.414 14.096 65.902 14.68 66.158 15.4H65.894V9.712C65.894 9.104 66.046 8.648 66.35 8.344C66.654 8.024 67.102 7.864 67.694 7.864C68.27 7.864 68.718 8.024 69.038 8.344C69.358 8.648 69.518 9.104 69.518 9.712V23.368C69.518 23.96 69.358 24.416 69.038 24.736C68.734 25.056 68.294 25.216 67.718 25.216C67.142 25.216 66.694 25.056 66.374 24.736C66.07 24.416 65.918 23.96 65.918 23.368V21.736L66.182 22.672C65.958 23.456 65.478 24.088 64.742 24.568C64.022 25.032 63.19 25.264 62.246 25.264ZM63.326 22.552C63.854 22.552 64.31 22.424 64.694 22.168C65.078 21.912 65.382 21.536 65.606 21.04C65.83 20.528 65.942 19.88 65.942 19.096C65.942 17.928 65.702 17.072 65.222 16.528C64.742 15.968 64.11 15.688 63.326 15.688C62.814 15.688 62.358 15.808 61.958 16.048C61.574 16.288 61.27 16.664 61.046 17.176C60.838 17.672 60.734 18.312 60.734 19.096C60.734 20.264 60.974 21.136 61.454 21.712C61.934 22.272 62.558 22.552 63.326 22.552ZM78.7664 25.216C78.1584 25.216 77.6944 25.048 77.3744 24.712C77.0544 24.376 76.8944 23.904 76.8944 23.296V11.152H72.6464C72.1504 11.152 71.7664 11.016 71.4944 10.744C71.2224 10.472 71.0864 10.096 71.0864 9.616C71.0864 9.12 71.2224 8.744 71.4944 8.488C71.7664 8.216 72.1504 8.08 72.6464 8.08H84.8624C85.3584 8.08 85.7424 8.216 86.0144 8.488C86.2864 8.744 86.4224 9.12 86.4224 9.616C86.4224 10.096 86.2864 10.472 86.0144 10.744C85.7424 11.016 85.3584 11.152 84.8624 11.152H80.6144V23.296C80.6144 23.904 80.4544 24.376 80.1344 24.712C79.8304 25.048 79.3744 25.216 78.7664 25.216ZM90.0401 25.264C89.1761 25.264 88.4001 25.096 87.7121 24.76C87.0241 24.424 86.4881 23.968 86.1041 23.392C85.7201 22.816 85.5281 22.168 85.5281 21.448C85.5281 20.584 85.7521 19.904 86.2001 19.408C86.6481 18.896 87.3761 18.536 88.3841 18.328C89.3921 18.104 90.7281 17.992 92.3921 17.992H93.6641V19.864H92.4161C91.6001 19.864 90.9361 19.912 90.4241 20.008C89.9281 20.088 89.5681 20.232 89.3441 20.44C89.1361 20.648 89.0321 20.936 89.0321 21.304C89.0321 21.752 89.1841 22.12 89.4881 22.408C89.8081 22.696 90.2641 22.84 90.8561 22.84C91.3201 22.84 91.7281 22.736 92.0801 22.528C92.4481 22.304 92.7361 22.008 92.9441 21.64C93.1521 21.256 93.2561 20.824 93.2561 20.344V17.584C93.2561 16.88 93.0961 16.384 92.7761 16.096C92.4561 15.792 91.9121 15.64 91.1441 15.64C90.7121 15.64 90.2401 15.696 89.7281 15.808C89.2321 15.904 88.6801 16.072 88.0721 16.312C87.7201 16.472 87.4081 16.512 87.1361 16.432C86.8641 16.336 86.6561 16.176 86.5121 15.952C86.3681 15.712 86.2961 15.456 86.2961 15.184C86.2961 14.896 86.3761 14.624 86.5361 14.368C86.6961 14.096 86.9601 13.896 87.3281 13.768C88.0801 13.464 88.7841 13.256 89.4401 13.144C90.1121 13.032 90.7281 12.976 91.2881 12.976C92.5201 12.976 93.5281 13.16 94.3121 13.528C95.1121 13.88 95.7121 14.432 96.1121 15.184C96.5121 15.92 96.7121 16.872 96.7121 18.04V23.368C96.7121 23.96 96.5681 24.416 96.2801 24.736C95.9921 25.056 95.5761 25.216 95.0321 25.216C94.4881 25.216 94.0641 25.056 93.7601 24.736C93.4721 24.416 93.3281 23.96 93.3281 23.368V22.48L93.4961 22.624C93.4001 23.168 93.1921 23.64 92.8721 24.04C92.5681 24.424 92.1761 24.728 91.6961 24.952C91.2161 25.16 90.6641 25.264 90.0401 25.264ZM103.903 25.264C102.479 25.264 101.415 24.872 100.711 24.088C100.007 23.288 99.6554 22.104 99.6554 20.536V9.712C99.6554 9.104 99.8074 8.648 100.111 8.344C100.431 8.024 100.887 7.864 101.479 7.864C102.055 7.864 102.495 8.024 102.799 8.344C103.119 8.648 103.279 9.104 103.279 9.712V20.392C103.279 21.048 103.415 21.536 103.687 21.856C103.975 22.16 104.351 22.312 104.815 22.312C104.943 22.312 105.063 22.304 105.175 22.288C105.287 22.272 105.407 22.264 105.535 22.264C105.791 22.232 105.967 22.312 106.063 22.504C106.175 22.68 106.231 23.04 106.231 23.584C106.231 24.064 106.135 24.432 105.943 24.688C105.751 24.928 105.455 25.088 105.055 25.168C104.895 25.184 104.711 25.2 104.503 25.216C104.295 25.248 104.095 25.264 103.903 25.264ZM109.712 25.216C109.12 25.216 108.664 25.056 108.344 24.736C108.04 24.416 107.888 23.96 107.888 23.368V9.712C107.888 9.104 108.04 8.648 108.344 8.344C108.664 8.024 109.12 7.864 109.712 7.864C110.288 7.864 110.728 8.024 111.032 8.344C111.352 8.648 111.512 9.104 111.512 9.712V18.088H111.56L115.04 14.224C115.392 13.824 115.712 13.528 116 13.336C116.304 13.128 116.704 13.024 117.2 13.024C117.696 13.024 118.072 13.152 118.328 13.408C118.6 13.664 118.736 13.976 118.736 14.344C118.752 14.696 118.6 15.056 118.28 15.424L114.608 19.528V18.16L118.688 22.864C118.992 23.232 119.12 23.6 119.072 23.968C119.04 24.336 118.88 24.64 118.592 24.88C118.304 25.104 117.936 25.216 117.488 25.216C116.944 25.216 116.504 25.112 116.168 24.904C115.848 24.696 115.52 24.376 115.184 23.944L111.56 19.912H111.512V23.368C111.512 24.6 110.912 25.216 109.712 25.216ZM123.334 25.192C122.742 25.192 122.286 25.024 121.966 24.688C121.662 24.336 121.51 23.848 121.51 23.224V15.016C121.51 14.376 121.662 13.888 121.966 13.552C122.286 13.2 122.742 13.024 123.334 13.024C123.91 13.024 124.35 13.2 124.654 13.552C124.974 13.888 125.134 14.376 125.134 15.016V23.224C125.134 23.848 124.982 24.336 124.678 24.688C124.374 25.024 123.926 25.192 123.334 25.192ZM123.334 11.056C122.662 11.056 122.142 10.904 121.774 10.6C121.422 10.28 121.246 9.832 121.246 9.256C121.246 8.664 121.422 8.216 121.774 7.912C122.142 7.592 122.662 7.432 123.334 7.432C124.006 7.432 124.518 7.592 124.87 7.912C125.222 8.216 125.398 8.664 125.398 9.256C125.398 9.832 125.222 10.28 124.87 10.6C124.518 10.904 124.006 11.056 123.334 11.056ZM134.292 25.264C132.9 25.264 131.7 25.016 130.692 24.52C129.7 24.008 128.932 23.296 128.388 22.384C127.86 21.456 127.596 20.368 127.596 19.12C127.596 17.904 127.852 16.84 128.364 15.928C128.876 15 129.588 14.28 130.5 13.768C131.428 13.24 132.476 12.976 133.644 12.976C134.492 12.976 135.26 13.12 135.948 13.408C136.636 13.68 137.228 14.08 137.724 14.608C138.22 15.12 138.596 15.752 138.852 16.504C139.108 17.24 139.236 18.064 139.236 18.976C139.236 19.28 139.14 19.512 138.948 19.672C138.756 19.816 138.476 19.888 138.108 19.888H130.572V18.016H136.62L136.236 18.352C136.236 17.696 136.14 17.152 135.948 16.72C135.756 16.272 135.476 15.936 135.108 15.712C134.756 15.488 134.316 15.376 133.788 15.376C133.196 15.376 132.692 15.512 132.276 15.784C131.86 16.056 131.54 16.448 131.316 16.96C131.092 17.472 130.98 18.088 130.98 18.808V19C130.98 20.216 131.26 21.112 131.82 21.688C132.396 22.264 133.244 22.552 134.364 22.552C134.748 22.552 135.188 22.504 135.684 22.408C136.18 22.312 136.644 22.16 137.076 21.952C137.444 21.776 137.772 21.72 138.06 21.784C138.348 21.832 138.572 21.96 138.732 22.168C138.892 22.376 138.98 22.616 138.996 22.888C139.028 23.16 138.972 23.432 138.828 23.704C138.684 23.96 138.444 24.176 138.108 24.352C137.564 24.656 136.948 24.88 136.26 25.024C135.588 25.184 134.932 25.264 134.292 25.264Z" fill="#FF9B06"/>
<defs>
<clipPath id="clip0_494_2493">
<rect width="26.6667" height="26.6667" fill="white" transform="translate(0 4.16669)"/>
</clipPath>
</defs>
</svg>
